
<svg xmlns="http://www.w3.org/2000/svg" xmlns:xlink="http://www.w3.org/1999/xlink" width="500" zoomAndPan="magnify" viewBox="0 0 375 374.999991" height="500" preserveAspectRatio="xMidYMid meet" version="1.0"><path fill="#000000" d="M 93.570312 63.257812 C 87.269531 65.421875 86.960938 67.039062 86.941406 97.953125 L 86.925781 125.820312 L 73.421875 132.335938 C 65.992188 135.917969 57.070312 140.4375 53.59375 142.378906 C 46.0625 146.585938 45.820312 146.46875 39.488281 135.628906 C 35.050781 128.035156 33.554688 126.738281 29.992188 127.410156 C 28.863281 127.625 27.335938 127.835938 26.59375 127.882812 C 24.25 128.027344 21.972656 134.054688 20.25 144.6875 C 17.089844 164.167969 18.527344 177.519531 25.285156 191.402344 C 28.71875 198.464844 29.597656 201.507812 29.597656 206.398438 C 29.597656 213.179688 31.574219 217.664062 40.460938 231.042969 C 53.355469 250.449219 76.171875 267.378906 99.605469 274.925781 C 113.65625 279.449219 120.769531 280.578125 134.886719 280.527344 C 164.6875 280.417969 180.402344 274.0625 234.109375 240.414062 C 292.128906 204.0625 312.28125 196.640625 341.328125 200.9375 C 350.4375 202.285156 353.800781 202.398438 355.863281 201.433594 C 359.558594 199.707031 360.730469 194.707031 358.527344 190.0625 C 355.675781 184.050781 348.292969 179.359375 327.542969 170.347656 C 325.566406 169.492188 324.015625 168.410156 324.089844 167.949219 C 324.890625 162.976562 319.402344 159.648438 303.4375 155.429688 C 295.234375 153.265625 294.363281 152.773438 293.804688 149.988281 C 293.0625 146.289062 290.363281 144.289062 275.410156 136.382812 C 248.351562 122.078125 219.320312 113.046875 191.234375 110.199219 C 171.542969 108.203125 139.265625 111.46875 113.203125 118.101562 C 108.554688 119.28125 104.460938 120.25 104.105469 120.25 C 103.753906 120.25 103.464844 114.046875 103.464844 106.46875 C 103.464844 98.886719 103.855469 92.6875 104.332031 92.6875 C 104.8125 92.6875 107.148438 93.679688 109.527344 94.890625 C 118.851562 99.644531 129.839844 96.582031 132.054688 88.609375 C 133.785156 82.378906 133.476562 74.992188 131.300781 70.636719 C 129.464844 66.964844 129.078125 66.769531 123.308594 66.625 C 119.769531 66.539062 115.179688 65.515625 112.285156 64.167969 C 106.757812 61.605469 99.425781 61.246094 93.570312 63.257812 M 99.207031 68.3125 C 98.382812 68.835938 96.769531 69.019531 95.625 68.71875 C 93.621094 68.195312 93.542969 69.300781 93.542969 98.035156 C 93.542969 124.128906 93.75 127.816406 95.195312 127.265625 C 96.578125 126.730469 96.847656 123.421875 96.847656 106.941406 C 96.847656 88.601562 96.996094 87.171875 98.980469 86.109375 C 102.449219 84.253906 105.28125 84.773438 110.808594 88.277344 C 116.769531 92.054688 122.09375 92.550781 124.792969 89.566406 C 126.15625 88.0625 126.617188 85.417969 126.617188 79.132812 L 126.617188 70.710938 L 122.964844 72.867188 C 118.949219 75.234375 119.96875 75.496094 108.425781 69.160156 C 104.777344 67.15625 101.503906 66.859375 99.207031 68.3125 M 152.652344 115.886719 C 138.890625 117.433594 126.105469 120.003906 110.269531 124.40625 L 95.574219 128.488281 L 96.210938 131.671875 C 96.5625 133.425781 96.847656 137.476562 96.847656 140.675781 L 96.847656 146.496094 L 107.269531 146.878906 C 117.777344 147.265625 121.761719 148.699219 119.257812 151.199219 C 117.695312 152.765625 98.730469 153.710938 92.4375 152.535156 C 87.066406 151.53125 85.527344 148.640625 90.027344 148 C 93.105469 147.566406 93.289062 147.054688 93.796875 137.613281 C 94.082031 132.308594 93.8125 130.171875 92.863281 130.171875 C 87.796875 130.171875 51.25 149.347656 51.984375 151.617188 C 52.8125 154.15625 65.785156 163.457031 74.300781 167.621094 C 105.101562 182.667969 151.046875 181.910156 201.726562 165.523438 C 234.683594 154.867188 250.394531 151.878906 274.136719 151.753906 L 289.90625 151.671875 L 286.816406 149.179688 C 281.070312 144.550781 248.53125 129.15625 235.210938 124.765625 C 213.566406 117.625 201.574219 115.546875 180.085938 115.207031 C 169.78125 115.042969 157.433594 115.351562 152.652344 115.886719 M 29.285156 131.988281 C 28.960938 132.515625 27.945312 136.664062 27.035156 141.207031 C 22.992188 161.328125 23.773438 175.035156 29.644531 187.125 C 42.300781 213.179688 88.84375 228.300781 133.046875 220.71875 C 150.753906 217.683594 174.796875 209.539062 210.96875 194.328125 C 226.726562 187.703125 244.433594 180.476562 250.316406 178.277344 C 273.089844 169.757812 297.542969 165.632812 312.621094 167.769531 C 316.613281 168.335938 320.132812 168.546875 320.4375 168.242188 C 321.183594 167.5 313.964844 164.515625 305.589844 162.105469 C 282.210938 155.375 249.410156 157.421875 216.46875 167.667969 C 176.722656 180.027344 166.242188 182.371094 141.582031 184.410156 C 91.199219 188.582031 51.472656 171.457031 33.503906 137.820312 C 31.507812 134.085938 29.609375 131.464844 29.285156 131.988281 M 284.183594 175.386719 C 269.679688 177.839844 251.363281 184.164062 221.984375 196.859375 C 181.464844 214.371094 159.390625 222.160156 139.339844 226.03125 C 102.003906 233.234375 69.105469 227.890625 41.714844 210.171875 C 37.4375 207.40625 33.699219 205.140625 33.40625 205.140625 C 33.113281 205.140625 34.433594 208.242188 36.347656 212.03125 C 61.191406 261.304688 117.710938 285.753906 167.960938 268.96875 C 180.847656 264.664062 198.179688 255.511719 222.351562 240.25 C 254.214844 220.128906 264.394531 214.097656 276.003906 208.457031 C 305.640625 194.054688 327.476562 190.273438 348.84375 195.835938 C 352.308594 196.738281 355.386719 197.238281 355.683594 196.941406 C 356.710938 195.914062 344.199219 184.722656 338.683594 181.738281 C 329.722656 176.886719 316.574219 174.269531 301.914062 174.410156 C 294.941406 174.476562 286.964844 174.914062 284.183594 175.386719 " fill-opacity="1" fill-rule="evenodd"/></svg>